# xmcd
#
# Track frame offsets: 
#        150
#        17398
#        36069
#        47933
#        60887
#        71840
#        90806
#        101248
#        113614
#        132771
#        143321
#
# Disc length: 2243 seconds
#
# Revision: 2
# Processed by: cddbd v1.5.2PL0 Copyright (c) Steve Scherf et al.
# Submitted via: ExactAudioCopy v1.0b1
#
DISCID=7f08c10b
DTITLE=Ray Stevens - All Time Hits
DYEAR=1995
DGENRE=Country
TTITLE0=Ahab, The Arab
TTITLE1=Butch Barbarian
TTITLE2=Funny Man
TTITLE3=Harry The Hairy Ape
TTITLE4=Jeremiah Peabocy's Polu-Unsaturated Quick Disolving Fast Actin
TTITLE4=g Pleasant Tasting Green and Purple Pills
TTITLE5=My Dad
TTITLE6=Santa Claus Is Watching You
TTITLE7=Speed Ball
TTITLE8=One More Last Chance
TTITLE9=Further More
TTITLE10=Shriner's Convention
EXTD=
EXTT0=
EXTT1=
EXTT2=
EXTT3=
EXTT4=
EXTT5=
EXTT6=
EXTT7=
EXTT8=
EXTT9=
EXTT10=
PLAYORDER=
